<svg width="124" height="43" viewBox="0 0 124 43" fill="none" xmlns="http://www.w3.org/2000/svg">
<rect y="0.236725" width="123.872" height="42.6705" rx="21.3352" fill="#D10C0C"/>
<path fill-rule="evenodd" clip-rule="evenodd" d="M110.168 14.963V18.3066H104.914V24.3569C104.914 24.3569 96.6343 24.0385 93.1315 24.3569C89.6287 24.6753 87.6862 26.4586 88.8326 29.1335C90.2655 32.477 99.8186 33.1139 104.436 30.5664L108.098 33.7508C102.791 36.1921 86.922 38.5273 81.9862 30.5664C78.165 22.7647 88.6734 20.2703 97.1119 20.3764V18.3066H70.204C70.0448 18.3066 69.7582 18.3703 69.8856 18.625C69.8975 18.6489 69.9478 18.7084 70.025 18.7998C70.616 19.4994 72.7832 22.0649 71.3669 24.7563H80.2348V28.5776H70.6817V25.7409C69.5182 27.0678 67.3349 28.3739 63.5169 29.4519C63.8884 31.0971 65.7459 33.8145 70.204 31.5217L72.1147 35.0245C68.2404 36.4575 59.5046 37.4446 55.556 29.9295L52.0532 28.4966L54.6007 24.6753C58.2627 25.9491 65.3638 27.0636 64.4722 21.3317C64.2493 19.8988 61.7655 18.3066 60.1733 18.625H46.0029V36.2983H38.5196V32.3178C33.6369 34.2284 19.5726 35.9798 16.8659 28.0189C14.7961 19.1027 34.5392 18.9435 38.5196 21.8094V18.625H14V14.963H39.3157C36.7151 11.3541 29.7626 5.21885 22.757 9.54959L19.095 6.206C23.0224 3.76465 35.9721 1.58866 45.5252 14.963H110.168ZM28.3296 24.2787C32.3101 23.9603 39.8252 24.4061 38.0419 28.7368L28.3296 24.2787ZM24.5084 25.8709C23.2877 27.7815 23.6167 31.4117 34.6983 30.6474L24.5084 25.8709Z" fill="white"/>
</svg>
